<?xml version="1.0" encoding="UTF-8"?>
<svg width="202px" height="29px" viewBox="0 0 202 29" version="1.1" xmlns="http://www.w3.org/2000/svg" xmlns:xlink="http://www.w3.org/1999/xlink">
    <!-- Generator: Sketch 43.1 (39012) - http://www.bohemiancoding.com/sketch -->
    <title>Logo black-mob</title>
    <desc>Created with Sketch.</desc>
    <defs></defs>
    <g id="Symbols" stroke="none" stroke-width="1" fill="none" fill-rule="evenodd">
        <g id="Logo-black" fill="#131313">
            <g id="Logo2">
                <text id="st-rcheus.com" font-family="ProximaNova-Semibold, Proxima Nova" font-size="24" font-weight="500">
                    <tspan x="0" y="22">st   rcheus.com</tspan>
                </text>
                <path d="M41.5440737,21.4949091 C41.7220771,21.4728297 41.8833929,21.3784052 41.9906089,21.2335343 C42.097825,21.0886634 42.1416262,20.9059327 42.1118543,20.7277209 L41.2730957,15.5915408 L44.9443589,11.931221 C45.1205213,11.7553593 45.1834467,11.4945541 45.1070728,11.2568261 C45.0306989,11.019098 44.8280313,10.8449295 44.583011,10.8064579 L39.4729525,10.0197808 L37.156645,5.36472186 C37.0450583,5.14111156 36.8178924,5 36.5695041,5 C36.3211159,5 36.09395,5.14111156 35.9823632,5.36472186 L33.6660558,10.0197808 L28.5559972,10.8064579 C28.3109826,10.8449398 28.1083249,11.0191122 28.0319585,11.2568384 C27.9555922,11.4945647 28.0185212,11.7553638 28.1946823,11.931221 L31.8659125,15.5915408 L31.027121,20.7277209 C30.9855681,20.9761565 31.0875153,21.2268308 31.2901355,21.3744378 C31.4927556,21.5220448 31.7609457,21.5410121 31.9820412,21.4233717 L36.5695041,19.0308435 L41.156967,21.4233717 C41.2757207,21.4865042 41.4108155,21.5114698 41.5440737,21.4949091 L41.5440737,21.4949091 Z M40.6020493,19.6419621 L36.8727712,17.6980185 C36.682682,17.5983865 36.4563263,17.5983865 36.2662371,17.6980185 L32.536959,19.6419621 L33.2208353,15.4680242 C33.2553305,15.2559875 33.1855876,15.0402665 33.0337629,14.8893926 L30.046409,11.9116958 L34.1951158,11.2810849 C34.4065649,11.249349 34.5894812,11.1159597 34.6854883,10.923487 L36.5695041,7.13962749 L38.4535199,10.923487 C38.5495271,11.1159597 38.7324434,11.249349 38.9438924,11.2810849 L43.0925993,11.9116958 L40.1052454,14.8893926 C39.9534207,15.0402665 39.8836778,15.2559875 39.918173,15.4680242 L40.6020493,19.6419621 L40.6020493,19.6419621 Z" id="Shape" stroke="#131313" fill-rule="nonzero"></path>
            </g>
        </g>
    </g>
</svg>