<?xml version="1.0" encoding="UTF-8"?>
<svg width="44px" height="42px" viewBox="0 0 44 42" version="1.1" xmlns="http://www.w3.org/2000/svg">
    <!-- Generator: Sketch 43.1 (39012) - http://www.bohemiancoding.com/sketch -->
    <title>menu_icons_about</title>
    <desc>Created with Sketch.</desc>
    <defs></defs>
    <g id="Desktop" stroke="none" stroke-width="1" fill="none" fill-rule="evenodd">
        <g id="Menu" transform="translate(-280.000000, -402.000000)" fill-rule="nonzero" fill="#FFFFFF">
            <g id="menu_icons_about" transform="translate(278.000000, 390.000000)">
                <path d="M36.0653975,53.4871956 C36.513103,53.4316626 36.9188367,53.1941705 37.1885012,52.8297983 C37.4581658,52.4654261 37.5683326,52.0058308 37.4934518,51.5576011 L35.3838469,38.63933 L44.6176301,29.4330709 C45.060705,28.9907521 45.2189721,28.3347876 45.0268801,27.7368655 C44.8347882,27.1389434 44.3250484,26.7008834 43.7087853,26.6041215 L30.8562138,24.6255094 L25.0303496,12.9173307 C24.749692,12.354917 24.1783353,12 23.5536013,12 C22.9288673,12 22.3575106,12.354917 22.076853,12.9173307 L16.2509888,24.6255094 L3.39841731,26.6041215 C2.78216847,26.7009091 2.27245348,27.1389792 2.08038055,27.7368967 C1.88830762,28.3348142 2.04658362,28.9907636 2.4896555,29.4330709 L11.7233558,38.63933 L9.6136679,51.5576011 C9.50915609,52.1824541 9.76556883,52.8129382 10.2751892,53.1841921 C10.7848096,53.5554459 11.4593483,53.6031516 12.015437,53.3072683 L23.5536013,47.2896972 L35.0917656,53.3072683 C35.390449,53.466056 35.730233,53.5288482 36.0653975,53.4871956 L36.0653975,53.4871956 Z M34.509316,49.5826443 L24.7903519,44.5164846 C24.2949555,44.2568312 23.7050445,44.2568312 23.2096481,44.5164846 L13.490684,49.5826443 L15.2729511,38.7048413 C15.3628499,38.1522471 15.1810912,37.5900513 14.7854171,37.1968551 L7,29.4366055 L17.8120478,27.793155 C18.3631105,27.7104473 18.839813,27.362818 19.0900197,26.8612102 L24,17 L28.9099803,26.8612102 C29.160187,27.362818 29.6368895,27.7104473 30.1879522,27.793155 L41,29.4366055 L33.2145829,37.1968551 C32.8189088,37.5900513 32.6371501,38.1522471 32.7270489,38.7048413 L34.509316,49.5826443 L34.509316,49.5826443 Z"
                      id="Shape"></path>
            </g>
        </g>
    </g>
</svg>