<?xml version="1.0" encoding="UTF-8"?>
<svg width="51px" height="46px" viewBox="0 0 51 46" version="1.1" xmlns="http://www.w3.org/2000/svg">
    <!-- Generator: Sketch 43.1 (39012) - http://www.bohemiancoding.com/sketch -->
    <title>menu_icons_price</title>
    <desc>Created with Sketch.</desc>
    <defs></defs>
    <g id="Desktop" stroke="none" stroke-width="1" fill="none" fill-rule="evenodd">
        <g id="Menu" transform="translate(-770.000000, -396.000000)" fill-rule="nonzero" fill="#FFFFFF">
            <g id="menu_icons_price" transform="translate(766.000000, 390.000000)">
                <path d="M29.5,6 C15.4179104,6 4,16.0586354 4,28.5095949 C4,33.4029851 5.84861407,38.1876333 9.1652452,42.1023454 C8.45842217,43.5703625 7.47974414,44.7665245 6.17484009,45.6364606 C5.46801706,46.1257996 5.08742004,46.9413646 5.30490405,47.7569296 C5.46801706,48.5724947 6.12046908,49.1705757 6.99040512,49.2793177 C7.80597015,49.3880597 8.62153518,49.4424307 9.43710021,49.4424307 C11.9925373,49.4424307 14.3304904,48.8987207 16.3965885,47.8113006 C20.3656716,49.9317697 24.8784648,51.0191898 29.5,51.0191898 C43.5820896,51.0191898 55,40.9061834 55,28.5095949 C55,16.0586354 43.5820896,6 29.5,6 Z M29.5,48.3006397 C25.0415778,48.3006397 20.7462687,47.2132196 17.0490405,45.0927505 C16.8315565,44.9840085 16.6140725,44.9296375 16.3965885,44.9296375 C16.1791045,44.9296375 15.9072495,44.9840085 15.6897655,45.1471215 C13.7867804,46.2889126 11.5575693,46.8326226 9.1108742,46.7782516 C10.3614072,45.5820896 11.3400853,44.1140725 11.9925373,42.3198294 C12.1556503,41.8304904 12.0469083,41.2867804 11.7206823,40.9061834 C8.45842217,37.3720682 6.71855011,33.0767591 6.71855011,28.5095949 C6.71855011,17.5810235 16.9402985,8.71855011 29.5,8.71855011 C42.0597015,8.71855011 52.2814499,17.5810235 52.2814499,28.5095949 C52.2814499,39.4381663 42.0597015,48.3006397 29.5,48.3006397 Z M35.9701493,32.261194 C35.9701493,35.0341151 33.8496802,37.3176972 31.1855011,37.3720682 C31.1855011,37.3720682 31.1855011,37.3720682 31.1311301,37.3720682 L30.8592751,37.3720682 L30.8592751,39.6556503 C30.8592751,40.4168443 30.261194,41.0149254 29.5,41.0149254 C28.738806,41.0149254 28.1407249,40.4168443 28.1407249,39.6556503 L28.1407249,37.3720682 L25.3678038,37.3720682 C24.6066098,37.3720682 24.0085288,36.7739872 24.0085288,36.0127932 C24.0085288,35.2515991 24.6066098,34.6535181 25.3678038,34.6535181 L31.0767591,34.6535181 C32.2729211,34.6535181 33.1972281,33.5660981 33.1972281,32.261194 C33.1972281,30.95629 32.2185501,29.8688699 31.0767591,29.8688699 L27.8688699,29.8688699 C25.2046908,29.8688699 23.0298507,27.5852878 23.0298507,24.7579957 C23.0298507,21.9307036 25.2046908,19.6471215 27.8688699,19.6471215 L28.0863539,19.6471215 L28.0863539,17.4179104 C28.0863539,16.6567164 28.684435,16.0586354 29.445629,16.0586354 C30.206823,16.0586354 30.8049041,16.6567164 30.8049041,17.4179104 L30.8049041,19.6471215 L33.4690832,19.6471215 C34.2302772,19.6471215 34.8283582,20.2452026 34.8283582,21.0063966 C34.8283582,21.7675906 34.2302772,22.3656716 33.4690832,22.3656716 L27.9232409,22.3656716 C26.7270789,22.3656716 25.8027719,23.4530917 25.8027719,24.7579957 C25.8027719,26.0628998 26.7814499,27.1503198 27.9232409,27.1503198 L31.1311301,27.1503198 C33.7953092,27.1503198 35.9701493,29.4339019 35.9701493,32.261194 Z"
                      id="price"></path>
            </g>
        </g>
    </g>
</svg>