<?xml version="1.0" encoding="UTF-8"?>
<svg width="164px" height="158px" viewBox="0 0 164 158" version="1.1" xmlns="http://www.w3.org/2000/svg">
    <!-- Generator: Sketch 43.1 (39012) - http://www.bohemiancoding.com/sketch -->
    <title>Menu-mob-price</title>
    <desc>Created with Sketch.</desc>
    <defs></defs>
    <g id="Mobile" stroke="none" stroke-width="1" fill="none" fill-rule="evenodd">
        <g id="Menu-mob" transform="translate(-21.000000, -236.000000)">
            <rect id="Rectangle" fill="#232323" x="-5" y="0" width="382" height="668"></rect>
            <g id="menu-item" transform="translate(21.000000, 236.000000)">
                <rect id="Rectangle-7" stroke="#BBBBBB" stroke-width="1" x="0.5" y="0.5" width="163"
                      height="157"></rect>
                <text id="About" font-family="ProximaNova-Regular, Proxima Nova" font-size="24" font-weight="normal"
                      fill="#EEEEEE">
                    <tspan x="24.1967213" y="135.319672">Price</tspan>
                </text>
            </g>
            <g id="menu-item" transform="translate(184.000000, 236.000000)">
                <rect id="Rectangle-7" stroke="#BBBBBB" stroke-width="1" x="0.5" y="0.5" width="163"
                      height="157"></rect>
                <text id="About" font-family="ProximaNova-Regular, Proxima Nova" font-size="24" font-weight="normal"
                      fill="#EEEEEE">
                    <tspan x="24.1967213" y="135.319672">Contact us</tspan>
                </text>
            </g>
            <path d="M102.433681,280 C90.0449317,280 80,289.351726 80,300.927646 C80,305.477134 81.6263223,309.925523 84.5441358,313.565114 C83.9223067,314.92996 83.0613125,316.042057 81.9133203,316.850855 C81.2914912,317.305804 80.9566602,318.064052 81.1479922,318.8223 C81.2914912,319.580548 81.8654873,320.136597 82.6308154,320.237696 C83.3483106,320.338796 84.0658057,320.389346 84.7833008,320.389346 C87.0314522,320.389346 89.0882715,319.883847 90.9059258,318.87285 C94.3977354,320.844295 98.3678751,321.855292 102.433681,321.855292 C114.82243,321.855292 124.867362,312.453016 124.867362,300.927646 C124.867362,289.351726 114.82243,280 102.433681,280 Z M102.433681,319.327799 C98.5113741,319.327799 94.7325665,318.316801 91.4799219,316.345356 C91.2885899,316.244257 91.0972579,316.193707 90.9059258,316.193707 C90.7145938,316.193707 90.4754288,316.244257 90.2840967,316.395906 C88.6099415,317.457454 86.6487881,317.962952 84.4963028,317.912402 C85.5964619,316.800305 86.4574561,315.435459 87.0314522,313.767313 C87.1749512,313.312364 87.0792852,312.806866 86.7922871,312.453016 C83.9223067,309.167275 82.3916504,305.173835 82.3916504,300.927646 C82.3916504,290.767122 91.3842559,282.527493 102.433681,282.527493 C113.483106,282.527493 122.475711,290.767122 122.475711,300.927646 C122.475711,311.08817 113.483106,319.327799 102.433681,319.327799 Z M108.125809,304.415587 C108.125809,306.99363 106.260321,309.116725 103.916504,309.167275 C103.916504,309.167275 103.916504,309.167275 103.868671,309.167275 L103.629506,309.167275 L103.629506,311.290369 C103.629506,311.998068 103.103343,312.554116 102.433681,312.554116 C101.764019,312.554116 101.237856,311.998068 101.237856,311.290369 L101.237856,309.167275 L98.7983722,309.167275 C98.1287101,309.167275 97.602547,308.611226 97.602547,307.903528 C97.602547,307.19583 98.1287101,306.639781 98.7983722,306.639781 L103.820838,306.639781 C104.873164,306.639781 105.686325,305.628784 105.686325,304.415587 C105.686325,303.20239 104.825331,302.191393 103.820838,302.191393 L100.998691,302.191393 C98.6548731,302.191393 96.7415528,300.068298 96.7415528,297.439705 C96.7415528,294.811112 98.6548731,292.688017 100.998691,292.688017 L101.190023,292.688017 L101.190023,290.615473 C101.190023,289.907774 101.716186,289.351726 102.385848,289.351726 C103.05551,289.351726 103.581673,289.907774 103.581673,290.615473 L103.581673,292.688017 L105.92549,292.688017 C106.595152,292.688017 107.121316,293.244066 107.121316,293.951764 C107.121316,294.659462 106.595152,295.215511 105.92549,295.215511 L101.046524,295.215511 C99.9941974,295.215511 99.1810362,296.226508 99.1810362,297.439705 C99.1810362,298.652902 100.04203,299.663899 101.046524,299.663899 L103.868671,299.663899 C106.212488,299.663899 108.125809,301.786994 108.125809,304.415587 Z"
                  id="price" fill="#FFFFFF" fill-rule="nonzero"></path>
        </g>
    </g>
</svg>