<?xml version="1.0" encoding="UTF-8"?>
<svg width="40px" height="52px" viewBox="0 0 40 52" version="1.1" xmlns="http://www.w3.org/2000/svg">
    <!-- Generator: Sketch 43.1 (39012) - http://www.bohemiancoding.com/sketch -->
    <title>menu_icons_contacts</title>
    <desc>Created with Sketch.</desc>
    <defs></defs>
    <g id="Desktop" stroke="none" stroke-width="1" fill="none" fill-rule="evenodd">
        <g id="Menu" transform="translate(-1011.000000, -392.000000)" fill-rule="nonzero" fill="#FFFFFF">
            <g id="menu_icons_contacts" transform="translate(1009.000000, 390.000000)">
                <path d="M42,22.9677419 C42,26.9935484 38.5,30.3483871 33.6666667,31.6903226 L33.6666667,49.8064516 C33.6666667,52.1548387 31.8333333,54 29.5,54 L6.16666667,54 C3.83333333,54 2,52.1548387 2,49.8064516 L2,6.19354839 C2,3.84516129 3.83333333,2 6.16666667,2 L29.5,2 C31.8333333,2 33.6666667,3.84516129 33.6666667,6.19354839 L33.6666667,14.2451613 C38.5,15.5870968 42,18.9419355 42,22.9677419 Z M14.5,5.35483871 L21.1666667,5.35483871 L21.1666667,7.03225806 L14.5,7.03225806 L14.5,5.35483871 Z M11.1666667,5.35483871 L12.8333333,5.35483871 L12.8333333,7.03225806 L11.1666667,7.03225806 L11.1666667,5.35483871 Z M6.16666667,3.67741935 C4.75,3.67741935 3.66666667,4.76774194 3.66666667,6.19354839 L3.66666667,8.70967742 L32,8.70967742 L32,6.19354839 C32,4.76774194 30.9166667,3.67741935 29.5,3.67741935 L6.16666667,3.67741935 Z M16.1666667,48.9677419 L19.5,48.9677419 L19.5,50.6451613 L16.1666667,50.6451613 L16.1666667,48.9677419 Z M29.5,52.3225806 C30.9166667,52.3225806 32,51.2322581 32,49.8064516 L32,47.2903226 L3.66666667,47.2903226 L3.66666667,49.8064516 C3.66666667,51.2322581 4.75,52.3225806 6.16666667,52.3225806 L29.5,52.3225806 Z M32,45.6129032 L32,32.0258065 C31.1666667,32.1096774 30.3333333,32.1935484 29.5,32.1935484 C28.0833333,32.1935484 26.6666667,32.0258065 25.3333333,31.6903226 L20.1666667,34.5419355 L20.6666667,29.5096774 C18.3333333,27.7483871 17,25.4 17,22.9677419 C17,17.8516129 22.5833333,13.7419355 29.5,13.7419355 C30.3333333,13.7419355 31.1666667,13.8258065 32,13.9096774 L32,10.3870968 L3.66666667,10.3870968 L3.66666667,45.6129032 L32,45.6129032 Z M29.5,30.516129 C35.5,30.516129 40.3333333,27.1612903 40.3333333,22.9677419 C40.3333333,18.7741935 35.5,15.4193548 29.5,15.4193548 C23.5,15.4193548 18.6666667,18.7741935 18.6666667,22.9677419 C18.6666667,25.0645161 19.8333333,26.9935484 22,28.4193548 L22.3333333,28.6709677 L22.0833333,31.5225806 L25.0833333,29.8451613 L25.4166667,29.9290323 C26.75,30.3483871 28.0833333,30.516129 29.5,30.516129 Z M29.5,20.4516129 C30.9166667,20.4516129 32,21.5419355 32,22.9677419 C32,24.3935484 30.9166667,25.483871 29.5,25.483871 C28.0833333,25.483871 27,24.3935484 27,22.9677419 C27,21.5419355 28.0833333,20.4516129 29.5,20.4516129 Z M29.5,23.8064516 C30,23.8064516 30.3333333,23.4709677 30.3333333,22.9677419 C30.3333333,22.4645161 30,22.1290323 29.5,22.1290323 C29,22.1290323 28.6666667,22.4645161 28.6666667,22.9677419 C28.6666667,23.4709677 29,23.8064516 29.5,23.8064516 Z M36.1666667,20.4516129 C37.5833333,20.4516129 38.6666667,21.5419355 38.6666667,22.9677419 C38.6666667,24.3935484 37.5833333,25.483871 36.1666667,25.483871 C34.75,25.483871 33.6666667,24.3935484 33.6666667,22.9677419 C33.6666667,21.5419355 34.75,20.4516129 36.1666667,20.4516129 Z M36.1666667,23.8064516 C36.6666667,23.8064516 37,23.4709677 37,22.9677419 C37,22.4645161 36.6666667,22.1290323 36.1666667,22.1290323 C35.6666667,22.1290323 35.3333333,22.4645161 35.3333333,22.9677419 C35.3333333,23.4709677 35.6666667,23.8064516 36.1666667,23.8064516 Z M22.8333333,20.4516129 C24.25,20.4516129 25.3333333,21.5419355 25.3333333,22.9677419 C25.3333333,24.3935484 24.25,25.483871 22.8333333,25.483871 C21.4166667,25.483871 20.3333333,24.3935484 20.3333333,22.9677419 C20.3333333,21.5419355 21.4166667,20.4516129 22.8333333,20.4516129 Z M22.8333333,23.8064516 C23.3333333,23.8064516 23.6666667,23.4709677 23.6666667,22.9677419 C23.6666667,22.4645161 23.3333333,22.1290323 22.8333333,22.1290323 C22.3333333,22.1290323 22,22.4645161 22,22.9677419 C22,23.4709677 22.3333333,23.8064516 22.8333333,23.8064516 Z"
                      id="Contact-us"></path>
            </g>
        </g>
    </g>
</svg>