<?xml version="1.0" encoding="UTF-8"?>
<svg width="345px" height="195px" viewBox="0 0 345 195" version="1.1" xmlns="http://www.w3.org/2000/svg">
    <!-- Generator: Sketch 43.1 (39012) - http://www.bohemiancoding.com/sketch -->
    <title>number 02</title>
    <desc>Created with Sketch.</desc>
    <defs></defs>
    <g id="Desktop" stroke="none" stroke-width="1" fill="none" fill-rule="evenodd" opacity="0.0827672101">
        <g id="index" transform="translate(-248.000000, -1393.000000)" fill="#131313">
            <g id="Section-2" transform="translate(0.000000, 807.000000)">
                <g id="Group" transform="translate(243.000000, 577.000000)">
                    <g id="number-02">
                        <path d="M84,101 L84,204 C26.688,204 5.184,160.224 5.184,108.096 C5.184,55.968 33.12,9.024 90.432,9.024 C145.130133,9.024 173.070704,51.7836329 175.505538,101 L84,101 Z M84,155.462853 C70.0458241,152.046538 63.648,136.5794 63.648,108.096 C63.648,75.552 72,60.288 90.432,60.288 C107.4684,60.288 115.893449,73.3280445 117.071605,101 L84,101 L84,155.462853 Z M278,62.1440806 L278,62.1440806 L278,9.62707944 C320.717944,13.8614277 347.904,39.9916071 347.904,75.264 C347.904,101.472 332.928,123.072 287.136,153.312 L349.632,153.312 L349.632,204 L192.672,204 L192.672,158.784 C280.512,96.864 288.864,89.664 288.864,75.264 C288.864,69.1383041 284.537892,64.5394699 278,62.1440806 Z"
                              id="Combined-Shape"></path>
                    </g>
                </g>
            </g>
        </g>
    </g>
</svg>