<?xml version="1.0" encoding="UTF-8"?>
<svg width="354px" height="199px" viewBox="0 0 354 199" version="1.1" xmlns="http://www.w3.org/2000/svg">
    <!-- Generator: Sketch 43.1 (39012) - http://www.bohemiancoding.com/sketch -->
    <title>number 04</title>
    <desc>Created with Sketch.</desc>
    <defs></defs>
    <g id="Desktop" stroke="none" stroke-width="1" fill="none" fill-rule="evenodd" opacity="0.0827672101">
        <g id="index" transform="translate(-248.000000, -2985.000000)" fill="#131313">
            <g id="Section-4" transform="translate(-4.000000, 2434.000000)">
                <g id="number-04" transform="translate(248.000000, 505.000000)">
                    <path d="M174.505538,138 L183,138 L183,241 L114.698383,241 C107.02479,243.246146 98.6046301,244.456 89.432,244.456 C32.12,244.456 4.184,197.224 4.184,145.096 C4.184,92.968 32.12,46.024 89.432,46.024 C144.130133,46.024 172.070704,88.7836329 174.505538,138 L174.505538,138 Z M83,192.462853 C69.0458241,189.046538 62.648,173.5794 62.648,145.096 C62.648,112.552 71,97.288 89.432,97.288 C106.4684,97.288 114.893449,110.328045 116.071605,138 L183,138 L183,241 L83,241 L83,192.462853 L83,192.462853 Z M197.522854,144.752577 L183,144.752577 L183,0.75257732 L277,0.75257732 L277,48.904 L335.672,48.904 L335.672,159.496 L357.848,159.496 L357.848,210.184 L335.672,210.184 L335.672,241 L277.496,241 L277.496,210.184 L185.048,210.184 L185.048,165.544 L197.522854,144.752577 L197.522854,144.752577 Z M250.099016,144.67764 C249.405091,144.727314 248.704408,144.752577 247.99782,144.752577 L183,144.752577 L183,0.75257732 L277,0.75257732 L277,99.8426667 L277.496,99.016 L277.496,159.496 L241.208,159.496 L250.099016,144.67764 L250.099016,144.67764 Z"
                          id="02"></path>
                </g>
            </g>
        </g>
    </g>
</svg>