<?xml version="1.0" encoding="UTF-8"?>
<svg width="351px" height="194px" viewBox="0 0 351 194" version="1.1" xmlns="http://www.w3.org/2000/svg">
    <!-- Generator: Sketch 43.1 (39012) - http://www.bohemiancoding.com/sketch -->
    <title>number 05</title>
    <desc>Created with Sketch.</desc>
    <defs></defs>
    <g id="Desktop" stroke="none" stroke-width="1" fill="none" fill-rule="evenodd" opacity="0.084522192">
        <g id="index" transform="translate(-248.000000, -3779.000000)" fill="#FFFFFF">
            <g id="Section-5" transform="translate(0.000000, 3176.000000)">
                <g id="number-05" transform="translate(242.000000, 593.000000)">
                    <path d="M176.505538,102 L85,102 L85,205 L116.698383,205 C109.02479,207.246146 100.60463,208.456 91.432,208.456 C34.12,208.456 6.184,161.224 6.184,109.096 C6.184,56.968 34.12,10.024 91.432,10.024 C146.130133,10.024 174.070704,52.7836329 176.505538,102 L176.505538,102 Z M85,156.462853 C71.0458241,153.046538 64.648,137.5794 64.648,109.096 C64.648,76.552 73,61.288 91.432,61.288 C108.4684,61.288 116.893449,74.3280445 118.071605,102 L85,102 L85,156.462853 Z M196.84,80 L196.84,129.544 L236.872,138.76 C246.664,129.544 257.896,125.512 272.584,125.512 C290.44,125.512 297.928,132.712 297.928,141.352 C297.928,149.416 290.152,157.192 270.856,157.192 C254.152,157.192 235.432,151.432 222.184,140.488 L191.08,181.384 C209.8,198.376 237.16,208.456 271.432,208.456 C325.288,208.456 356.968,181.096 356.968,138.76 C356.968,100.456 327.88,75.976 295.048,75.976 C278.92,75.976 264.232,81.736 255.016,90.664 L255.016,80 L196.84,80 L196.84,80 Z M264,12.904 L343.72,12.904 L343.72,63.592 L264,63.592 L264,12.904 Z"
                          id="03"></path>
                </g>
            </g>
        </g>
    </g>
</svg>