<?xml version="1.0" encoding="UTF-8"?>
<svg width="82px" height="82px" viewBox="0 0 82 82" version="1.1" xmlns="http://www.w3.org/2000/svg">
    <!-- Generator: Sketch 43.1 (39012) - http://www.bohemiancoding.com/sketch -->
    <title>Path Copy 2-web</title>
    <desc>Created with Sketch.</desc>
    <defs></defs>
    <g id="Symbols" stroke="none" stroke-width="1" fill="none" fill-rule="evenodd">
        <g id="what-exactly-we-do" transform="translate(-361.000000, 0.000000)" fill-rule="nonzero" fill="#00E8EF">
            <path d="M414.820611,17.0938215 L389.878565,17.0938215 C387.913489,17.0938215 386.315416,18.6800103 386.315416,20.6304742 L388.096991,20.6304742 C388.096991,19.6552422 388.896027,18.8621479 389.878565,18.8621479 L414.820611,18.8621479 C415.803149,18.8621479 416.602185,19.6552422 416.602185,20.6304742 L416.602185,25.9354533 L391.66014,25.9354533 L391.66014,22.3988006 L375.625968,22.3988006 L375.625968,38.3137379 L391.66014,38.3137379 L391.66014,27.7037797 L416.602185,27.7037797 L416.602185,31.2404324 L416.602185,33.0087588 L416.602185,38.3137379 L416.602185,40.0820642 L416.602185,57.7653279 L396.114077,57.7653279 L396.114077,54.2286751 L375.625968,54.2286751 L375.625968,63.070307 L396.114077,63.070307 L396.114077,59.5336542 L416.602185,59.5336542 L416.602185,64.8386333 C416.602185,65.8138653 415.803149,66.6069597 414.820611,66.6069597 L389.878565,66.6069597 C388.896027,66.6069597 388.096991,65.8138653 388.096991,64.8386333 L386.315416,64.8386333 C386.315416,66.7890973 387.913489,68.375286 389.878565,68.375286 L414.820611,68.375286 C416.785687,68.375286 418.38376,66.7890973 418.38376,64.8386333 L418.38376,40.0820642 L418.38376,38.3137379 L418.38376,33.0087588 L418.38376,31.2404324 L418.38376,20.6304742 C418.38376,18.6800103 416.785687,17.0938215 414.820611,17.0938215 Z M389.878565,36.5454115 L377.407543,36.5454115 L377.407543,24.167127 L389.878565,24.167127 L389.878565,36.5454115 Z M394.332502,61.3019806 L377.407543,61.3019806 L377.407543,55.9970015 L394.332502,55.9970015 L394.332502,61.3019806 Z M405.02195,62.1861438 L405.02195,63.9544701 L399.677226,63.9544701 L399.677226,62.1861438 L405.02195,62.1861438 Z M406.803525,21.5146374 L406.803525,23.2829638 L401.458801,23.2829638 L401.458801,21.5146374 L406.803525,21.5146374 Z M399.677226,21.5146374 L399.677226,23.2829638 L397.895651,23.2829638 L397.895651,21.5146374 L399.677226,21.5146374 Z M388.096991,40.0820642 L388.096991,52.4603488 L386.315416,52.4603488 L386.315416,40.0820642 L388.096991,40.0820642 Z M402.349588,43.618717 C403.82295,43.618717 405.02195,42.4286333 405.02195,40.9662274 C405.02195,39.5038215 403.82295,38.3137379 402.349588,38.3137379 C400.876226,38.3137379 399.677226,39.5038215 399.677226,40.9662274 C399.677226,42.4286333 400.876226,43.618717 402.349588,43.618717 Z M402.349588,40.0820642 C402.841303,40.0820642 403.240375,40.4790535 403.240375,40.9662274 C403.240375,41.4534013 402.841303,41.8503906 402.349588,41.8503906 C401.858764,41.8503906 401.458801,41.4534013 401.458801,40.9662274 C401.458801,40.4790535 401.858764,40.0820642 402.349588,40.0820642 Z M411.257461,42.7345538 C411.257461,37.859278 407.261389,33.892922 402.349588,33.892922 C397.437787,33.892922 393.441715,37.859278 393.441715,42.7345538 C393.441715,47.6098296 397.437787,51.5761856 402.349588,51.5761856 C407.261389,51.5761856 411.257461,47.6098296 411.257461,42.7345538 Z M398.91204,48.9263485 C399.306659,47.3825996 400.695396,46.2712065 402.349588,46.2712065 C404.002889,46.2712065 405.392518,47.3825996 405.787136,48.9263485 C404.768076,49.486908 403.5958,49.8078592 402.349588,49.8078592 C401.103377,49.8078592 399.931991,49.486908 398.91204,48.9263485 Z M395.223289,42.7345538 C395.223289,38.83451 398.420325,35.6612483 402.349588,35.6612483 C406.278851,35.6612483 409.475887,38.83451 409.475887,42.7345538 C409.475887,44.7336467 408.632311,46.5382238 407.283659,47.8264495 C406.490858,45.8636073 404.586355,44.5028801 402.349588,44.5028801 C400.112821,44.5028801 398.208318,45.8636073 397.415517,47.8264495 C396.066865,46.5382238 395.223289,44.7345309 395.223289,42.7345538 Z M427.291633,38.3137379 L429.073208,38.3137379 L429.073208,40.0820642 L427.291633,40.0820642 L427.291633,38.3137379 Z M421.946909,40.0820642 L420.165335,40.0820642 L420.165335,38.3137379 L421.946909,38.3137379 L421.946909,40.0820642 Z M423.728484,38.3137379 L425.510059,38.3137379 L425.510059,40.0820642 L423.728484,40.0820642 L423.728484,38.3137379 Z M413.039036,38.3137379 L414.820611,38.3137379 L414.820611,40.0820642 L413.039036,40.0820642 L413.039036,38.3137379 Z M413.039036,34.7770851 L414.820611,34.7770851 L414.820611,36.5454115 L413.039036,36.5454115 L413.039036,34.7770851 Z M414.820611,33.0087588 L413.039036,33.0087588 L413.039036,31.2404324 L414.820611,31.2404324 L414.820611,33.0087588 Z M421.946909,33.0087588 L420.165335,33.0087588 L420.165335,31.2404324 L421.946909,31.2404324 L421.946909,33.0087588 Z M425.510059,33.0087588 L423.728484,33.0087588 L423.728484,31.2404324 L425.510059,31.2404324 L425.510059,33.0087588 Z M429.073208,33.0087588 L427.291633,33.0087588 L427.291633,31.2404324 L429.073208,31.2404324 L429.073208,33.0087588 Z M429.073208,36.5454115 L427.291633,36.5454115 L427.291633,34.7770851 L429.073208,34.7770851 L429.073208,36.5454115 Z M388.096991,31.2404324 L379.189118,31.2404324 L379.189118,29.4721061 L388.096991,29.4721061 L388.096991,31.2404324 Z M383.643054,34.7770851 L379.189118,34.7770851 L379.189118,33.0087588 L383.643054,33.0087588 L383.643054,34.7770851 Z M388.096991,27.7037797 L379.189118,27.7037797 L379.189118,25.9354533 L388.096991,25.9354533 L388.096991,27.7037797 Z M380.970692,50.6920224 L382.752267,50.6920224 L382.752267,52.4603488 L380.970692,52.4603488 L380.970692,50.6920224 Z M377.407543,50.6920224 L379.189118,50.6920224 L379.189118,52.4603488 L377.407543,52.4603488 L377.407543,50.6920224 Z M375.625968,52.4603488 L373.844394,52.4603488 L373.844394,50.6920224 L375.625968,50.6920224 L375.625968,52.4603488 Z M375.625968,48.923696 L373.844394,48.923696 L373.844394,47.1553697 L375.625968,47.1553697 L375.625968,48.923696 Z M375.625968,45.3870433 L373.844394,45.3870433 L373.844394,43.618717 L375.625968,43.618717 L375.625968,45.3870433 Z M379.189118,45.3870433 L377.407543,45.3870433 L377.407543,43.618717 L379.189118,43.618717 L379.189118,45.3870433 Z M382.752267,45.3870433 L380.970692,45.3870433 L380.970692,43.618717 L382.752267,43.618717 L382.752267,45.3870433 Z M380.970692,47.1553697 L382.752267,47.1553697 L382.752267,48.923696 L380.970692,48.923696 L380.970692,47.1553697 Z M390.769353,59.5336542 L380.970692,59.5336542 L380.970692,57.7653279 L390.769353,57.7653279 L390.769353,59.5336542 Z M425.510059,25.0512901 L420.165335,25.0512901 L420.165335,23.2829638 L425.510059,23.2829638 L425.510059,25.0512901 Z M429.073208,21.5146374 L420.165335,21.5146374 L420.165335,19.7463111 L429.073208,19.7463111 L429.073208,21.5146374 Z M420.165335,48.923696 L420.165335,59.5336542 L430.854783,59.5336542 L430.854783,48.923696 L420.165335,48.923696 Z M429.073208,57.7653279 L421.946909,57.7653279 L421.946909,50.6920224 L429.073208,50.6920224 L429.073208,57.7653279 Z M426.400846,55.1128383 L424.619271,55.1128383 L424.619271,53.344512 L426.400846,53.344512 L426.400846,55.1128383 Z"
                  id="UX-design-ico"></path>
        </g>
    </g>
</svg>