<?xml version="1.0" encoding="UTF-8"?>
<svg width="82px" height="82px" viewBox="0 0 82 82" version="1.1" xmlns="http://www.w3.org/2000/svg">
    <!-- Generator: Sketch 43.1 (39012) - http://www.bohemiancoding.com/sketch -->
    <title>Path Copy 5-web</title>
    <desc>Created with Sketch.</desc>
    <defs></defs>
    <g id="Symbols" stroke="none" stroke-width="1" fill="none" fill-rule="evenodd">
        <g id="what-exactly-we-do" transform="translate(-361.000000, -143.000000)" fill-rule="nonzero" fill="#F14336">
            <path d="M404.326931,155.892449 L404.326931,157.249223 L415.400107,157.248606 C415.671239,156.375159 416.419785,155.979485 417.281972,155.892449 C418.406027,155.892449 419.317623,156.803549 419.317623,157.926993 C419.317623,159.051054 418.406027,159.962155 417.281972,159.962155 C416.198062,159.894255 415.747205,159.429445 415.348845,158.483777 L410.351124,158.483777 C418.864296,161.022019 425.576509,167.887373 428.200744,176.323079 L428.200127,171.363259 C427.29656,171.089805 426.872877,170.354011 426.782088,169.457108 C426.782088,168.333664 427.693685,167.422564 428.818357,167.422564 L428.817739,167.422564 C429.942412,167.422564 430.854008,168.333664 430.854008,169.457108 C430.790394,170.49043 430.350654,170.978696 429.43597,171.363259 L429.435352,182.405108 L430.792864,182.405108 L430.792864,186.352594 L429.435352,186.352594 L429.435352,197.393826 C430.339537,197.667279 430.763837,198.403073 430.854008,199.299977 C430.854008,200.42342 429.942412,201.334521 428.818357,201.334521 C427.693685,201.334521 426.782088,200.42342 426.782088,199.299977 C426.845703,198.266655 427.285443,197.778389 428.200744,197.393826 L428.200127,192.312402 C424.905164,203.36351 414.432308,211.081941 402.970037,211.370826 L402.970037,211.386258 L375.268879,211.386258 L375.268879,183.700155 L375.284319,183.700155 C375.446751,172.160781 383.406542,161.884355 394.353106,158.483777 L389.355386,158.483777 C389.078078,159.415865 388.355471,159.867712 387.422876,159.962155 C386.298821,159.962155 385.387225,159.051054 385.387225,157.926993 C385.432311,156.738118 386.288939,156.006645 387.422876,155.892449 L387.763798,155.928251 C388.55496,156.054792 388.947144,156.598613 389.304124,157.249223 L400.377299,157.249223 L400.377299,155.892449 L404.326931,155.892449 Z M376.504104,192.312402 L376.504104,192.312402 L376.504104,210.151704 L394.353106,210.151704 C385.839935,207.613462 379.12834,200.748108 376.504104,192.312402 Z M424.973719,171.870043 C425.386284,173.89286 425.267085,172.907686 425.36405,174.822479 C425.36405,182.280418 419.315153,188.326028 411.853158,188.326028 C408.676159,188.224795 405.280525,187.263695 402.970037,184.954462 L402.970037,210.136272 C416.309232,209.91467 426.497987,199.216644 428.046959,186.352594 L426.843232,186.352594 L426.843232,182.405108 L428.117984,182.405108 C427.905526,178.66441 426.650537,175.179882 424.973719,171.870043 Z M401.734812,184.934709 L376.519544,184.934709 C376.698034,198.5648 388.222684,209.795535 401.734812,210.136272 L401.734812,184.934709 Z M411.85254,162.552866 L411.85254,162.552866 C405.073007,162.552866 399.576873,168.046013 399.576873,174.822479 C399.576873,181.598327 405.073007,187.091474 411.853158,187.091474 C418.632691,187.091474 424.128825,181.598327 424.128825,174.822479 C424.128825,168.046013 418.632691,162.552866 411.853158,162.552866 L411.85254,162.552866 Z M429.557639,185.11804 L429.557639,183.639662 L428.078457,183.639662 L428.078457,185.11804 L429.557639,185.11804 Z M400.377299,158.591183 C387.180772,159.687467 377.181625,170.654008 376.519544,183.700155 L401.715048,183.700155 C399.380473,181.344009 398.503463,178.02985 398.341648,174.822479 C398.341648,167.364539 404.390546,161.318312 411.853158,161.318312 C413.768374,161.415225 412.782665,161.29609 414.806581,161.708431 C411.488767,159.70722 408.094368,159.081301 404.326931,158.606615 L404.326931,159.839934 L400.377299,159.839934 L400.377299,158.591183 Z M403.091706,157.127002 L401.612524,157.127002 L401.612524,158.60538 L403.091706,158.60538 L403.091706,157.127002 Z"
                  id="Graphic-design-ico"></path>
        </g>
    </g>
</svg>