<?xml version="1.0" encoding="UTF-8"?>
<svg width="82px" height="83px" viewBox="0 0 82 83" version="1.1" xmlns="http://www.w3.org/2000/svg">
    <!-- Generator: Sketch 43.1 (39012) - http://www.bohemiancoding.com/sketch -->
    <title>Path Copy 7-web</title>
    <desc>Created with Sketch.</desc>
    <defs></defs>
    <g id="Symbols" stroke="none" stroke-width="1" fill="none" fill-rule="evenodd">
        <g id="what-exactly-we-do" transform="translate(-202.000000, -285.000000)" fill="#00E8EF">
            <path d="M243.95607,320.960188 C243.987855,320.960188 244.013487,320.934548 244.013487,320.902753 C244.013487,320.870959 243.987855,320.845318 243.95607,320.845318 C243.924286,320.845318 243.898653,320.870959 243.898653,320.902753 C243.898653,320.934548 243.924286,320.960188 243.95607,320.960188 Z M259.732688,323.604466 C260.257645,323.604466 260.682123,324.030102 260.683148,324.555224 L260.683148,333.61871 C260.683148,334.143832 260.257645,334.568443 259.733713,334.568443 L257.333467,334.568443 L257.333467,343.977566 C257.333467,345.837032 255.821138,347.349835 253.962255,347.349835 L236.035772,347.349835 L234.691593,351.315944 C234.585987,351.626709 234.327609,351.861578 234.007713,351.936449 C233.935941,351.952859 233.86417,351.961065 233.791373,351.961065 C233.542223,351.961065 233.300251,351.862604 233.119796,351.682093 L221.488704,340.04838 C221.256984,339.815562 221.160605,339.480182 221.235453,339.160185 C221.309275,338.840189 221.545096,338.58173 221.855764,338.476091 L230.579083,335.516124 L230.579083,323.314213 C228.966274,322.293712 227.892777,320.493732 227.892777,318.448627 C227.892777,316.402497 228.966274,314.602518 230.579083,313.582016 L230.579083,308.929762 C230.579083,307.071322 232.091413,305.558519 233.950296,305.558519 L236.709399,305.558519 L233.819056,302.276505 C233.472502,301.882663 233.510439,301.281644 233.904157,300.934982 C234.297875,300.588319 234.898706,300.626267 235.24526,301.020109 L239.242935,305.558519 L253.96123,305.558519 C255.820113,305.558519 257.332442,307.071322 257.332442,308.929762 L257.332442,323.604466 L259.732688,323.604466 Z M257.331416,332.667952 L258.782227,332.667952 L258.782227,325.504957 L257.331416,325.504957 L257.331416,332.667952 Z M255.432546,343.977566 L255.432546,308.929762 C255.432546,308.119515 254.772248,307.45901 253.96123,307.45901 L233.951321,307.45901 C233.140303,307.45901 232.480004,308.119515 232.480004,308.929762 L232.480004,343.977566 C232.480004,344.788839 233.140303,345.449344 233.951321,345.449344 L253.96123,345.449344 C254.772248,345.449344 255.432546,344.788839 255.432546,343.977566 Z M253.378855,309.937956 C253.903812,309.937956 254.329315,310.363592 254.329315,310.888714 L254.329315,337.368411 C254.329315,337.893533 253.903812,338.318144 253.378855,338.318144 L234.532671,338.318144 C234.007713,338.318144 233.58221,337.893533 233.58221,337.368411 L233.58221,310.888714 C233.58221,310.363592 234.007713,309.937956 234.532671,309.937956 L253.378855,309.937956 Z M246.542102,332.667952 L252.42942,332.667952 L252.42942,325.504957 L246.542102,325.504957 L246.542102,332.667952 Z M239.741235,336.417653 L252.42942,336.417653 L252.42942,334.568443 L245.592667,334.568443 C245.067709,334.568443 244.642206,334.142807 244.642206,333.61871 L244.642206,324.554199 C244.642206,324.030102 245.067709,323.604466 245.592667,323.604466 L252.42942,323.604466 L252.42942,311.838447 L244.775496,311.838447 L250.941698,318.839392 C251.289277,319.234259 251.250315,319.835278 250.856597,320.181941 C250.676143,320.340913 250.452626,320.418861 250.229109,320.418861 C249.965605,320.418861 249.703126,320.310145 249.515495,320.096814 L242.242986,311.839472 L235.483131,311.839472 L235.483131,312.993305 C237.76034,313.760476 239.403908,315.915323 239.403908,318.448627 C239.403908,320.980906 237.759314,323.135753 235.483131,323.90395 L235.483131,333.853579 L239.454148,332.506928 C239.796601,332.390006 240.175965,332.479236 240.431267,332.734618 C240.687594,332.99 240.77577,333.368457 240.658885,333.711017 L239.741235,336.417653 Z M245.798548,320.902753 C245.798548,321.919152 244.97215,322.745809 243.95607,322.745809 C242.941015,322.745809 242.113592,321.919152 242.113592,320.902753 C242.113592,319.886355 242.941015,319.059697 243.95607,319.059697 C244.97215,319.059697 245.798548,319.886355 245.798548,320.902753 Z M241.861059,324.771017 L243.098605,326.916633 C243.268806,327.209963 243.268806,327.57201 243.098605,327.866366 L241.861059,330.010957 C241.690858,330.305312 241.377113,330.486849 241.037736,330.486849 L238.562643,330.486849 C238.223266,330.486849 237.909522,330.305312 237.739321,330.010957 L236.501774,327.866366 C236.331573,327.573036 236.331573,327.209963 236.501774,326.916633 L237.739321,324.771017 C237.909522,324.477687 238.223266,324.29615 238.562643,324.29615 L241.037736,324.29615 C241.377113,324.29615 241.690858,324.476661 241.861059,324.771017 Z M240.489197,328.585332 L241.178204,327.390474 L240.489197,326.195616 L239.110158,326.195616 L238.421151,327.390474 L239.110158,328.585332 L240.489197,328.585332 Z M235.482106,335.860736 L235.482106,336.417653 L237.733682,336.417653 L238.241209,334.925362 L235.482106,335.860736 Z M235.482106,315.059948 L235.482106,321.837307 C236.685817,321.185006 237.502988,319.910149 237.502988,318.448627 C237.502988,316.98608 236.684792,315.713274 235.482106,315.059948 Z M233.382275,349.257506 L234.029244,347.349835 L233.951321,347.349835 C232.092438,347.349835 230.580109,345.837032 230.580109,343.977566 L230.580109,337.524307 L223.912532,339.784794 L233.382275,349.257506 Z M229.793698,318.448627 C229.793698,319.322464 230.087961,320.127583 230.580109,320.77578 L230.580109,316.1225 C230.087961,316.768647 229.793698,317.574791 229.793698,318.448627 Z M243.95607,339.220697 C245.382273,339.220697 246.541897,340.380684 246.541897,341.80836 C246.541897,343.235011 245.381248,344.394997 243.95607,344.394997 C242.529867,344.394997 241.370244,343.233985 241.370244,341.80836 C241.370244,340.380684 242.529867,339.220697 243.95607,339.220697 Z M243.95607,342.493481 C244.334409,342.493481 244.642001,342.185792 244.640976,341.807335 C244.640976,341.428877 244.334409,341.121189 243.95607,341.121189 C243.576706,341.121189 243.270139,341.428877 243.270139,341.807335 C243.270139,342.185792 243.577732,342.493481 243.95607,342.493481 Z"
                  id="android-dev-ico"></path>
        </g>
    </g>
</svg>