<?xml version="1.0" encoding="UTF-8"?>
<svg width="82px" height="82px" viewBox="0 0 82 82" version="1.1" xmlns="http://www.w3.org/2000/svg">
    <!-- Generator: Sketch 43.1 (39012) - http://www.bohemiancoding.com/sketch -->
    <title>Path Copy 4-web</title>
    <desc>Created with Sketch.</desc>
    <defs></defs>
    <g id="Symbols" stroke="none" stroke-width="1" fill="none" fill-rule="evenodd" fill-opacity="0.979704484">
        <g id="what-exactly-we-do" transform="translate(-202.000000, -143.000000)" fill="#FF4DEB">
            <path d="M228.714793,160.166104 L261.245206,160.166104 L261.245206,166.147117 L261.245206,167.952404 L261.245206,170.18505 L274.911451,170.18505 L274.911451,203.213424 L261.253187,203.213424 L261.253187,207.203429 L228.714793,207.203429 L228.714793,203.213424 L215.050543,203.213424 L215.050543,178.288874 L215.050543,176.48758 L215.050543,170.183053 L228.714793,170.183053 L228.714793,167.950407 L228.714793,166.147117 L228.714793,160.166104 Z M233.118361,164.9607 L233.118361,163.157409 L234.918179,163.157409 L234.918179,164.9607 L233.118361,164.9607 Z M236.717997,164.9607 L236.717997,163.157409 L238.521805,163.157409 L238.521805,164.9607 L236.717997,164.9607 Z M240.323619,164.9607 L240.323619,163.157409 L242.123437,163.157409 L242.123437,164.9607 L240.323619,164.9607 Z M230.514611,166.149114 L259.449379,166.149114 L259.449379,161.969394 L230.514611,161.969394 L230.514611,166.149114 Z M237.294657,174.682093 L237.294657,172.876805 L252.664943,172.876805 L252.664943,174.682093 L237.294657,174.682093 Z M242.418751,171.558786 L242.418751,169.757492 L247.54484,169.757492 L247.54484,171.558786 L242.418751,171.558786 Z M230.514611,170.18505 L230.514611,176.489577 L259.449379,176.489577 L259.449379,170.18505 L259.449379,167.952404 L230.514611,167.952404 L230.514611,170.18505 Z M263.036843,175.141403 L263.036843,173.338112 L264.838656,173.338112 L264.838656,175.141403 L263.036843,175.141403 Z M266.277313,175.141403 L266.277313,173.338112 L268.081122,173.338112 L268.081122,175.141403 L266.277313,175.141403 Z M269.521775,175.141403 L269.521775,173.338112 L271.325583,173.338112 L271.325583,175.141403 L269.521775,175.141403 Z M261.245206,176.489577 L273.105647,176.489577 L273.105647,171.990337 L261.245206,171.990337 L261.245206,176.489577 Z M218.638007,175.141403 L218.638007,173.338112 L220.43982,173.338112 L220.43982,175.141403 L218.638007,175.141403 Z M221.880473,175.141403 L221.880473,173.338112 L223.684282,173.338112 L223.684282,175.141403 L221.880473,175.141403 Z M225.122939,175.141403 L225.122939,173.338112 L226.924752,173.338112 L226.924752,175.141403 L225.122939,175.141403 Z M216.850361,176.489577 L228.712797,176.489577 L228.712797,171.990337 L216.850361,171.990337 L216.850361,176.489577 Z M261.253187,190.254894 L261.253187,201.408136 L273.111633,201.408136 L273.111633,178.290871 L261.253187,178.290871 L261.253187,190.254894 Z M239.130192,185.141977 L237.861141,186.412068 L234.820206,183.370638 L237.861141,180.331205 L239.130192,181.605291 L237.370281,183.370638 L239.130192,185.141977 Z M252.100055,186.412667 L250.831004,185.142576 L252.590915,183.371237 L250.831004,181.60589 L252.100055,180.331804 L255.140989,183.371237 L252.100055,186.412667 Z M230.514611,188.453601 L259.449379,188.453601 L259.449379,178.290871 L230.514611,178.290871 L230.514611,188.453601 Z M216.850361,178.290871 L216.850361,201.408136 L228.712797,201.408136 L228.712797,190.254894 L228.712797,178.290871 L216.850361,178.290871 Z M234.678735,200.26765 L234.678735,192.065973 L242.871698,192.065973 L242.871698,200.26765 L234.678735,200.26765 Z M236.480548,198.466356 L241.073875,198.466356 L241.073875,193.867267 L236.480548,193.867267 L236.480548,198.466356 Z M234.678735,203.592654 L234.678735,201.79136 L242.871698,201.79136 L242.871698,203.592654 L234.678735,203.592654 Z M247.089897,200.26765 L247.089897,192.065973 L255.28286,192.065973 L255.28286,200.26765 L247.089897,200.26765 Z M248.889715,198.466356 L253.481046,198.466356 L253.481046,193.867267 L248.889715,193.867267 L248.889715,198.466356 Z M247.089897,203.592654 L247.089897,201.79136 L255.28286,201.79136 L255.28286,203.592654 L247.089897,203.592654 Z M230.514611,203.215421 L230.514611,205.404132 L259.449379,205.404132 L259.449379,203.215421 L259.449379,190.254894 L230.514611,190.254894 L230.514611,203.215421 Z"
                  id="Web-design-ico"></path>
        </g>
    </g>
</svg>