<?xml version="1.0" encoding="UTF-8"?>
<svg width="82px" height="82px" viewBox="0 0 82 82" version="1.1" xmlns="http://www.w3.org/2000/svg">
    <!-- Generator: Sketch 43.1 (39012) - http://www.bohemiancoding.com/sketch -->
    <title>Path Copy-web</title>
    <desc>Created with Sketch.</desc>
    <defs></defs>
    <g id="Symbols" stroke="none" stroke-width="1" fill="none" fill-rule="evenodd">
        <g id="what-exactly-we-do" transform="translate(-202.000000, 0.000000)" fill-rule="nonzero" fill="#F8E81C">
            <path d="M233.528318,16.9319074 C231.595319,16.9319074 230.009483,18.5182283 230.009483,20.45159 C230.009483,22.3849517 231.595319,23.9712726 233.528318,23.9712726 C235.461316,23.9712726 237.047152,22.3849517 237.047152,20.45159 C237.047152,18.5182283 235.461316,16.9319074 233.528318,16.9319074 Z M233.528318,18.6917487 C234.510417,18.6917487 235.287735,19.4692466 235.287735,20.45159 C235.287735,21.4339334 234.510417,22.2114313 233.528318,22.2114313 C232.546217,22.2114313 231.768901,21.4339334 231.768901,20.45159 C231.768901,19.4692466 232.546217,18.6917487 233.528318,18.6917487 Z M254.641325,19.5716693 C254.155476,19.5716693 253.761616,19.9655218 253.761616,20.45159 C253.761616,20.9374822 254.155476,21.3315107 254.641325,21.3315107 C255.127174,21.3315107 255.521034,20.9374822 255.521034,20.45159 C255.521034,19.9655218 255.127174,19.5716693 254.641325,19.5716693 Z M251.12249,22.2114313 C250.636641,22.2114313 250.242782,22.6052838 250.242782,23.091352 C250.242782,23.5772442 250.636641,23.9712726 251.12249,23.9712726 C251.608339,23.9712726 252.002199,23.5772442 252.002199,23.091352 C252.002199,22.6052838 251.608339,22.2114313 251.12249,22.2114313 Z M258.160159,22.2114313 C257.67431,22.2114313 257.280451,22.6052838 257.280451,23.091352 C257.280451,23.5772442 257.67431,23.9712726 258.160159,23.9712726 C258.646008,23.9712726 259.039868,23.5772442 259.039868,23.091352 C259.039868,22.6052838 258.646008,22.2114313 258.160159,22.2114313 Z M224.731232,24.8511933 C223.284123,24.8511933 222.092106,26.0434858 222.092106,27.4909553 C222.092106,28.9384248 223.284123,30.1307172 224.731232,30.1307172 C226.17834,30.1307172 227.370357,28.9384248 227.370357,27.4909553 C227.370357,26.0434858 226.17834,24.8511933 224.731232,24.8511933 Z M251.12249,25.731114 C250.636641,25.731114 250.242782,26.1249664 250.242782,26.6110346 C250.242782,27.0969268 250.636641,27.4909553 251.12249,27.4909553 C251.608339,27.4909553 252.002199,27.0969268 252.002199,26.6110346 C252.002199,26.1249664 251.608339,25.731114 251.12249,25.731114 Z M258.160159,25.731114 C257.67431,25.731114 257.280451,26.1249664 257.280451,26.6110346 C257.280451,27.0969268 257.67431,27.4909553 258.160159,27.4909553 C258.646008,27.4909553 259.039868,27.0969268 259.039868,26.6110346 C259.039868,26.1249664 258.646008,25.731114 258.160159,25.731114 Z M224.731232,26.6110346 C225.227505,26.6110346 225.61094,26.994504 225.61094,27.4909553 C225.61094,27.9874065 225.227505,28.3708759 224.731232,28.3708759 C224.234958,28.3708759 223.851523,27.9874065 223.851523,27.4909553 C223.851523,26.994504 224.234958,26.6110346 224.731232,26.6110346 Z M254.641325,28.3708759 C254.155476,28.3708759 253.761616,28.7647284 253.761616,29.2507966 C253.761616,29.7366888 254.155476,30.1307172 254.641325,30.1307172 C255.127174,30.1307172 255.521034,29.7366888 255.521034,29.2507966 C255.521034,28.7647284 255.127174,28.3708759 254.641325,28.3708759 Z M224.401341,33.6503999 C223.915491,33.7567051 223.607789,34.2368364 223.714068,34.7228032 C223.820348,35.2087699 224.300364,35.5165464 224.786213,35.4102412 L225.61094,35.4102412 L225.61094,35.5202313 L225.61094,41.1297255 C225.504093,41.1702018 225.405575,41.2313563 225.226068,41.2947106 L225.226068,41.2397156 C219.495601,43.1431599 216.018581,48.964627 216.978799,54.9334808 C217.938927,60.9018067 223.091551,65.3275436 229.129775,65.3275436 L236.167444,65.3275436 L236.167444,65.7125089 C235.97058,66.0067543 235.966667,66.3896937 236.157475,66.6879032 C236.348283,66.9861127 236.69757,67.1429491 237.047152,67.0873849 L238.80657,67.0873849 C239.071481,67.0920605 239.324392,66.9770723 239.495058,66.7743583 C239.665723,66.5716442 239.735967,66.3027935 239.686278,66.0424791 L239.686278,65.3275436 L259.039868,65.3275436 L259.039868,65.7125089 C258.843005,66.0067543 258.839091,66.3896937 259.029899,66.6879032 C259.220707,66.9861127 259.569994,67.1429491 259.919577,67.0873849 L261.678994,67.0873849 C261.943905,67.0920605 262.196817,66.9770723 262.367482,66.7743583 C262.538147,66.5716442 262.608391,66.3027935 262.558703,66.0424791 L262.558703,65.3275436 L266.077537,65.3275436 C268.011765,65.3275436 269.596372,63.7426305 269.596372,61.807861 L269.596372,42.4496065 C269.596372,40.5148369 268.011765,38.9299238 266.077537,38.9299238 C266.059214,38.9293509 266.040878,38.9293509 266.022555,38.9299238 L266.022555,37.1700825 L266.902264,37.1700825 C267.219518,37.1745704 267.514613,37.0078469 267.674549,36.7337538 C267.834486,36.4596606 267.834486,36.1206631 267.674549,35.84657 C267.514613,35.5724768 267.219518,35.4057533 266.902264,35.4102412 L256.400742,35.4102412 C256.309672,35.3958325 256.216903,35.3958325 256.125833,35.4102412 C255.811544,35.4593608 255.547327,35.6724611 255.43271,35.9692693 C255.318094,36.2660775 255.370491,36.6015013 255.570165,36.84919 C255.769838,37.0968786 256.086453,37.2192021 256.400742,37.1700825 L257.225469,37.1700825 L257.225469,38.9299238 L252.002199,38.9299238 L252.002199,37.1700825 L252.826926,37.1700825 C253.14418,37.1745704 253.439275,37.0078469 253.599211,36.7337538 C253.759148,36.4596606 253.759148,36.1206631 253.599211,35.84657 C253.439275,35.5724768 253.14418,35.4057533 252.826926,35.4102412 L242.325404,35.4102412 C242.234334,35.3958325 242.141565,35.3958325 242.050495,35.4102412 C241.736206,35.4593608 241.471989,35.6724611 241.357372,35.9692693 C241.242756,36.2660775 241.295153,36.6015013 241.494827,36.84919 C241.6945,37.0968786 242.011114,37.2192021 242.325404,37.1700825 L243.205113,37.1700825 L243.205113,38.9299238 L232.648609,38.9299238 L232.648609,35.5202313 L232.648609,35.4102412 L233.473336,35.4102412 C233.790591,35.414729 234.085685,35.2480056 234.245621,34.9739124 C234.405558,34.6998193 234.405558,34.3608218 234.245621,34.0867286 C234.085685,33.8126355 233.790591,33.645912 233.473336,33.6503999 L224.786213,33.6503999 C224.695143,33.6359912 224.602375,33.6359912 224.511304,33.6503999 C224.474685,33.6481337 224.43796,33.6481337 224.401341,33.6503999 Z M227.370357,35.4102412 L230.889192,35.4102412 L230.889192,35.5202313 L230.889192,41.4047007 C230.889192,42.000231 231.355046,42.5459578 231.713919,42.7245817 C232.050456,42.8917666 232.336872,42.909189 232.483664,42.9445618 L232.538646,42.9445618 C236.615703,44.3264332 239.322923,47.9867219 239.631296,52.1287337 L218.628253,52.1287337 C218.970852,47.9767067 221.729213,44.307119 225.830867,42.9445618 C225.995566,42.8864871 226.266558,42.7912797 226.600612,42.6145916 C226.767639,42.5265995 226.974512,42.4166094 227.15043,42.1746313 C227.287024,41.9866802 227.318402,41.6773001 227.315376,41.4047007 L227.370357,41.4047007 L227.370357,41.1847205 L227.370357,35.5202313 L227.370357,35.4102412 Z M244.96453,37.1700825 L250.242782,37.1700825 L250.242782,42.0096461 L250.242782,44.429428 L250.242782,46.8492098 L244.96453,46.8492098 L244.96453,44.429428 L244.96453,42.0096461 L244.96453,37.1700825 Z M258.984886,37.1700825 L264.263138,37.1700825 L264.263138,42.0096461 L264.263138,44.429428 L264.263138,48.6090511 L258.984886,48.6090511 L258.984886,44.429428 L258.984886,42.0096461 L258.984886,37.1700825 Z M232.648609,40.6897652 L243.205113,40.6897652 L243.205113,42.0096461 L243.205113,44.429428 L243.205113,55.153461 C243.205113,57.5964727 245.175463,59.5530643 247.603656,59.5530643 C250.031835,59.5530643 252.002199,57.5964727 252.002199,55.153461 L252.002199,44.429428 L252.002199,42.0096461 L252.002199,40.6897652 L257.225469,40.6897652 L257.225469,42.0096461 L257.225469,44.429428 L257.225469,55.153461 C257.225469,57.5964727 259.195819,59.5530643 261.624012,59.5530643 C264.052191,59.5530643 266.022555,57.5964727 266.022555,55.153461 L266.022555,44.429428 L266.022555,42.0096461 L266.022555,40.6897652 C266.040878,40.6903313 266.059214,40.6903313 266.077537,40.6897652 C267.067493,40.6897652 267.836954,41.4595197 267.836954,42.4496065 L267.836954,61.807861 C267.836954,62.7979477 267.067493,63.5677023 266.077537,63.5677023 L235.507662,63.5677023 C238.518454,61.7374374 240.682534,58.6189159 241.28075,54.9334808 C242.249316,48.9662109 238.761178,43.2062502 233.033482,41.2947106 L232.9785,41.2397156 C232.816704,41.1957195 232.732678,41.2093583 232.648609,41.1847205 L232.648609,40.6897652 Z M244.96453,48.6090511 L250.242782,48.6090511 L250.242782,55.153461 C250.242782,56.6649887 249.074311,57.793223 247.603656,57.793223 C246.13298,57.793223 244.96453,56.6649887 244.96453,55.153461 L244.96453,48.6090511 Z M258.984886,50.3688924 L264.263138,50.3688924 L264.263138,55.153461 C264.263138,56.6649887 263.094667,57.793223 261.624012,57.793223 C260.153336,57.793223 258.984886,56.6649887 258.984886,55.153461 L258.984886,50.3688924 Z M218.573271,53.888575 L239.576315,53.888575 C239.553365,54.142631 239.562769,54.4032266 239.521333,54.6585056 C238.688942,59.7866832 234.315092,63.571398 229.129775,63.5677023 C223.945218,63.5677023 219.508384,59.7879151 218.683235,54.6585056 C218.640636,54.3937111 218.595488,54.1519775 218.573271,53.888575 Z"
                  id="UX-research-ico"></path>
        </g>
    </g>
</svg>